<?xml version="1.0" encoding="UTF-8"?>
<svg version="1.1" xmlns="http://www.w3.org/2000/svg" width="200" height="200">
<path d="M0 0 C1.14046532 -0.00788544 1.14046532 -0.00788544 2.30397034 -0.01593018 C4.79726188 -0.02904788 7.28990599 -0.0204217 9.78320312 -0.01025391 C11.52762982 -0.01227701 13.27205568 -0.01519043 15.01647949 -0.01895142 C18.66455167 -0.02336362 22.31240282 -0.01697941 25.96044922 -0.00292969 C30.62423041 0.01416159 35.28749358 0.00431447 39.9512558 -0.01364708 C43.55104437 -0.02451483 47.1507112 -0.02102488 50.75050354 -0.0132637 C52.46961021 -0.01126996 54.18872812 -0.01369181 55.90782166 -0.02070236 C58.31514548 -0.02836635 60.72164354 -0.01664436 63.12890625 0 C63.83145035 -0.00607269 64.53399445 -0.01214539 65.25782776 -0.0184021 C70.29460145 0.04574554 73.66716153 1.09803056 78.06445312 3.38818359 C80.37695313 6.01318359 80.37695313 6.01318359 82.06445312 8.38818359 C83.05445312 8.88318359 83.05445312 8.88318359 84.06445312 9.38818359 C84.06445312 10.04818359 84.06445312 10.70818359 84.06445312 11.38818359 C84.64512228 11.64422961 85.22579144 11.90027563 85.82405663 12.16408062 C88.28559037 13.50900808 89.92579292 14.99509583 91.91079712 16.97383118 C92.66226517 17.71821442 93.41373322 18.46259766 94.18797302 19.22953796 C95.00266556 20.04670792 95.81735809 20.86387787 96.65673828 21.70581055 C97.52217758 22.56613892 98.38761688 23.42646729 99.27928162 24.31286621 C101.64868677 26.67075559 104.01347346 29.03308806 106.37585497 31.39800286 C108.34973695 33.37295526 110.326589 35.34492145 112.30339944 37.31694192 C116.96732033 41.96977176 121.62589739 46.62790511 126.28125 51.28930664 C131.0815737 56.09567164 135.89100357 60.89278407 140.7049824 65.68546897 C144.84041761 69.80328387 148.97001758 73.92688744 153.09502447 78.05514878 C155.55761702 80.51955353 158.02237808 82.9816853 160.49281693 85.4382267 C163.24735275 88.17784475 165.98967979 90.92948531 168.73095703 93.68237305 C169.54969803 94.49347031 170.36843903 95.30456757 171.21199036 96.14024353 C171.95781876 96.89308624 172.70364716 97.64592896 173.47207642 98.42158508 C174.12135416 99.07069509 174.7706319 99.71980509 175.43958473 100.38858509 C179.09410564 104.88591828 179.35895049 109.39291968 179.33911133 114.98901367 C179.34422226 115.73767197 179.34933319 116.48633026 179.354599 117.25767517 C179.36846058 119.72443717 179.36754048 122.1909186 179.36523438 124.65771484 C179.36912393 126.38018395 179.37345913 128.1026521 179.3782196 129.82511902 C179.38567498 133.43381866 179.38539603 137.04242046 179.38012695 140.65112305 C179.37434109 145.26103252 179.39124514 149.87053906 179.41447163 154.48038197 C179.42925246 158.03816546 179.43007463 161.59585297 179.4269619 165.15366173 C179.42747319 166.85241174 179.43267457 168.5511674 179.44277382 170.24988747 C179.45520214 172.63324232 179.44830839 175.01582609 179.43676758 177.39916992 C179.44441132 178.0919101 179.45205505 178.78465027 179.45993042 179.49838257 C179.39800348 185.32596144 178.11905085 190.8223708 174.41601562 195.44677734 C171.05213765 198.13331337 168.53457644 200.11726703 164.06445312 200.38818359 C164.06445312 197.08818359 164.06445312 193.78818359 164.06445312 190.38818359 C163.07445312 190.05818359 162.08445313 189.72818359 161.06445312 189.38818359 C159.46972656 187.55786133 159.46972656 187.55786133 157.67382812 185.13427734 C152.89226991 178.99109059 147.52522576 173.58095919 141.99951172 168.11743164 C140.29780485 166.43421622 138.60447158 164.74289882 136.91210938 163.05029297 C135.82273974 161.96583212 134.73291267 160.88183055 133.64257812 159.79833984 C133.14147522 159.29834976 132.64037231 158.79835968 132.12408447 158.28321838 C130.07002402 156.25678174 128.04963973 154.37737844 125.71582031 152.67504883 C125.17086914 152.2503833 124.62591797 151.82571777 124.06445312 151.38818359 C124.06445312 150.72818359 124.06445312 150.06818359 124.06445312 149.38818359 C123.51482658 149.16373534 122.96520004 148.93928709 122.39891815 148.70803738 C119.37711933 146.99958059 117.1303504 144.72012716 114.7130127 142.27052307 C113.92195216 141.48096746 113.92195216 141.48096746 113.1149106 140.67546123 C111.3491638 138.91066695 109.59066413 137.1388247 107.83203125 135.36694336 C106.56744869 134.10015955 105.30241777 132.83382317 104.03697205 131.56790161 C101.31289134 128.84088696 98.59199835 126.11074453 95.8735199 123.37814522 C91.57571267 119.05808346 87.27083922 114.7451102 82.96496582 110.43309021 C76.1555743 103.6123146 69.35087124 96.78688349 62.54818964 89.95941633 C50.36537431 77.73228887 38.17699589 65.51071305 25.98337698 53.29435962 C21.70340166 49.00597272 17.4262517 44.71479313 13.1513443 40.42135441 C10.49224975 37.75161931 7.83112779 35.08391194 5.16949654 32.41670609 C3.93506057 31.17879864 2.70149731 29.94002023 1.46887016 28.70031166 C-0.21315422 27.00883716 -1.89824107 25.32047276 -3.58410645 23.63282776 C-4.07165893 23.14099819 -4.55921142 22.64916863 -5.06153822 22.14243513 C-10.48076772 16.73223242 -13.40558309 15.01568058 -20.93554688 14.38818359 C-20.58283586 10.39079207 -19.13772743 7.95648292 -16.67773438 4.81787109 C-11.67427048 0.71188951 -6.28084438 -0.05429074 0 0 Z " fill="#3B9ACC" transform="translate(20.935546875,-0.38818359375)"/>
<path d="M0 0 C10.01075102 -1.26492772 20.18222062 -2.45542565 28.57302928 4.00644124 C32.15570959 7.16927626 35.49475746 10.52349449 38.81787109 13.95532227 C40.35357272 15.45950756 41.89388874 16.95899378 43.43838501 18.45414734 C47.58840843 22.50029037 51.66654167 26.61222817 55.73160505 30.74351239 C59.14387883 34.19748444 62.59112191 37.61543786 66.03908789 41.03372329 C74.17864593 49.10329938 82.26219627 57.22600217 90.31005859 65.38696289 C98.58795882 73.77972394 106.94393358 82.08814758 115.34483659 90.35764271 C122.58111523 97.48520861 129.77125626 104.65702296 136.92560637 111.86682361 C141.18759387 116.16164599 145.46335455 120.43959937 149.7818718 124.67764473 C153.84283452 128.66774009 157.84260838 132.71084222 161.80382919 136.79989815 C163.25773421 138.28237575 164.73109732 139.74608273 166.22551727 141.18770981 C173.95169711 148.66506142 178.63630136 154.28487578 178.93976557 165.374093 C178.84421889 169.94446711 178.54607545 174.46155964 178 179 C177.67 178.34 177.34 177.68 177 177 C176.01 176.67 175.02 176.34 174 176 C172.40527344 174.16967773 172.40527344 174.16967773 170.609375 171.74609375 C165.82781679 165.602907 160.46077263 160.19277559 154.93505859 154.72924805 C153.23335172 153.04603263 151.54001845 151.35471522 149.84765625 149.66210938 C148.75828662 148.57764853 147.66845954 147.49364695 146.578125 146.41015625 C146.07702209 145.91016617 145.57591919 145.41017609 145.05963135 144.89503479 C143.0055709 142.86859815 140.9851866 140.98919484 138.65136719 139.28686523 C138.10641602 138.86219971 137.56146484 138.43753418 137 138 C137 137.34 137 136.68 137 136 C136.45037346 135.77555175 135.90074692 135.5511035 135.33446503 135.31985378 C132.3126662 133.611397 130.06589727 131.33194357 127.64855957 128.88233948 C127.12118588 128.35596907 126.59381219 127.82959866 126.05045748 127.28727764 C124.28471068 125.52248336 122.52621101 123.7506411 120.76757812 121.97875977 C119.50299556 120.71197595 118.23796464 119.44563958 116.97251892 118.17971802 C114.24843822 115.45270336 111.52754523 112.72256093 108.80906677 109.98996162 C104.51125954 105.66989986 100.20638609 101.35692661 95.9005127 97.04490662 C89.09112117 90.22413101 82.28641812 83.3986999 75.48373652 76.57123274 C63.30092118 64.34410528 51.11254276 52.12252945 38.91892385 39.90617603 C34.63894853 35.61778912 30.36179857 31.32660953 26.08689117 27.03317082 C23.42779663 24.36343572 20.76667467 21.69572835 18.10504341 19.02852249 C16.87060744 17.79061504 15.63704418 16.55183664 14.40441704 15.31212807 C12.72239265 13.62065356 11.0373058 11.93228917 9.35144043 10.24464417 C8.86388794 9.7528146 8.37633546 9.26098503 7.87400866 8.75425154 C5.88739024 6.77094222 3.93639847 4.95360819 1.66553497 3.29720974 C1.11590843 2.86913053 0.56628189 2.44105131 0 2 C0 1.34 0 0.68 0 0 Z " fill="#000001" transform="translate(8,13)"/>
<path d="M0 0 C9.78822836 -0.06962235 19.57639745 -0.12287333 29.36482334 -0.15543652 C33.91037834 -0.1710681 38.45576346 -0.19226041 43.0012207 -0.22631836 C47.39083963 -0.25900146 51.78029553 -0.27687187 56.17002678 -0.28463173 C57.84171043 -0.2901592 59.51338553 -0.30095301 61.18499947 -0.31719017 C63.53311314 -0.33908385 65.88055985 -0.34196201 68.22875977 -0.34057617 C68.91424896 -0.351362 69.59973816 -0.36214783 70.30599976 -0.3732605 C75.30178025 -0.34152022 78.63178085 0.74938319 83 3 C84.9375 5.1875 84.9375 5.1875 86 7 C85.67 7.66 85.34 8.32 85 9 C84.38852615 8.92862823 83.77705231 8.85725647 83.14704895 8.78372192 C75.56585126 7.98863628 68.04103228 7.88972335 60.42703819 7.92303085 C56.66941175 7.93458259 52.91189233 7.9138471 49.15429688 7.8984375 C44.40301075 7.88013245 39.65238191 7.87165684 34.90112305 7.90039062 C31.03002043 7.92294793 27.16031804 7.91149922 23.28931618 7.87738419 C21.82337664 7.87063607 20.3573235 7.87623717 18.89148521 7.89474106 C7.44327112 8.03016041 7.44327112 8.03016041 3.73574829 5.3838501 C2.23683182 3.65252128 1.05663066 2.02639859 0 0 Z " fill="#5997C0" transform="translate(16,0)"/>
<path d="M0 0 C1.875 1 1.875 1 4.07748413 3.52227783 C7.4972715 6.5511375 9.0061974 6.6294448 13.51025391 6.64355469 C14.15655762 6.6524321 14.80286133 6.66130951 15.46875 6.67045593 C17.59688246 6.6940738 19.72335212 6.68295505 21.8515625 6.671875 C23.34265919 6.68246702 24.833741 6.69538352 26.32479858 6.71051025 C30.24977676 6.74470526 34.17425843 6.75009432 38.09936523 6.74859619 C42.83620519 6.75136613 47.57290516 6.78435816 52.30962181 6.81666946 C56.00292735 6.84181292 59.69591474 6.86146329 63.38931274 6.86248779 C70.9356859 6.87693656 78.3738243 7.13388538 85.875 8 C85.875 8.66 85.875 9.32 85.875 10 C82.52355157 11.11714948 79.94838315 11.15186942 76.41577148 11.18945312 C75.76505676 11.19774643 75.11434204 11.20603973 74.44390869 11.21458435 C73.03290148 11.23196264 71.62186577 11.24713551 70.21081352 11.26036072 C67.97941984 11.28140727 65.74816967 11.30842693 63.51686096 11.33703613 C57.97668603 11.40683152 52.43640885 11.46630692 46.89611816 11.52606201 C42.21206095 11.57696278 37.52808178 11.63177248 32.84413338 11.69187927 C30.64273001 11.71848847 28.44131946 11.73927955 26.23985291 11.7598877 C24.89484303 11.77648712 23.54983647 11.79335864 22.20483398 11.81054688 C21.02807602 11.82307495 19.85131805 11.83560303 18.63890076 11.84851074 C15.91551694 11.81407764 15.91551694 11.81407764 13.875 13 C11.69825217 13.15469367 9.5171652 13.25002106 7.3359375 13.31640625 C5.38300781 13.37924805 5.38300781 13.37924805 3.390625 13.44335938 C2.01041955 13.48317299 0.63021117 13.52288522 -0.75 13.5625 C-2.13803415 13.60569407 -3.52605528 13.64930865 -4.9140625 13.69335938 C-8.31760256 13.79972 -11.72121778 13.90174714 -15.125 14 C-14.36950616 9.25807055 -12.71460858 6.20402403 -9.125 3 C-6.23839107 1.21120654 -3.46160174 0 0 0 Z " fill="#337FB1" transform="translate(15.125,0)"/>
<path d="M0 0 C1.13500694 0.88312038 2.25761307 1.78218855 3.375 2.6875 C4.00148437 3.18636719 4.62796875 3.68523437 5.2734375 4.19921875 C9.28707474 8.38538791 9.28284302 13.2081024 9.22705078 18.7277832 C9.22734283 19.48929184 9.22763489 20.25080048 9.22793579 21.03538513 C9.22654768 23.54063498 9.21101112 26.04558366 9.1953125 28.55078125 C9.19158052 30.29241269 9.18873442 32.03404624 9.18673706 33.77568054 C9.17911516 38.35089962 9.15947908 42.92599093 9.1373291 47.50115967 C9.11683956 52.17328157 9.1077287 56.8454242 9.09765625 61.51757812 C9.07623182 70.67844143 9.04211331 79.83921007 9 89 C4.17580775 84.80446347 4.17580775 84.80446347 3.40545654 81.27947998 C3.41957581 80.29876526 3.43369507 79.31805054 3.44824219 78.30761719 C3.45184753 77.19006042 3.45545288 76.07250366 3.45916748 74.92108154 C3.48811096 73.72509338 3.51705444 72.52910522 3.546875 71.296875 C3.55632141 70.0633429 3.56576782 68.82981079 3.57550049 67.55889893 C3.60421448 64.29052291 3.65402352 61.02339913 3.71496582 57.75549316 C3.79565123 53.13674556 3.83619787 48.51745972 3.88165283 43.89825439 C3.90818934 41.43978201 3.94248628 38.98137952 3.98504639 36.52313232 C4.00126038 35.4181842 4.01747437 34.31323608 4.03417969 33.17480469 C4.05148132 32.19727234 4.06878296 31.21973999 4.08660889 30.21258545 C4.25173618 28.0254335 4.25173618 28.0254335 3 27 C2.7032001 25.5148826 2.46197224 24.01855105 2.24609375 22.51953125 C2.11396484 21.60236328 1.98183594 20.68519531 1.84570312 19.74023438 C1.71099609 18.77408203 1.57628906 17.80792969 1.4375 16.8125 C1.29892578 15.86568359 1.16035156 14.91886719 1.01757812 13.94335938 C0.35401404 9.25918528 -0.18342005 4.74499698 0 0 Z " fill="#6CA6C9" transform="translate(191,96)"/>
<path d="M0 0 C2.0625 0.4375 2.0625 0.4375 4 1 C4.8125 2.6875 4.8125 2.6875 5 5 C3.3545622 6.68762851 1.68711423 8.3540349 0 10 C0 11.32 0 12.64 0 14 C2.93493396 13.58072372 3.88989537 13.12075992 5.9375 10.875 C6.618125 10.25625 7.29875 9.6375 8 9 C10.75 9.25 10.75 9.25 13 10 C12.51118919 14.39929732 11.11865181 15.98194986 8 19 C8 19.99 8 20.98 8 22 C12.40114397 21.49701212 14.71195019 19.91227269 18 17 C19.32 17.66 20.64 18.32 22 19 C22 21.94077007 21.42678658 23.56506475 19.36328125 25.66796875 C16.20552515 28.2001884 13.82068704 29.83908097 9.8125 30.625 C6.23215191 29.82936709 4.51601012 28.65978212 2 26 C1.1875 23.25 1.1875 23.25 1 21 C-0.11375 20.9071875 -0.11375 20.9071875 -1.25 20.8125 C-4.94570593 19.72058689 -6.03449378 18.27584369 -8 15 C-8.6875 12.1875 -8.6875 12.1875 -8 9 C-5.62032911 5.71436304 -2.86270624 2.86270624 0 0 Z " fill="#166AA0" transform="translate(97,36)"/>
<path d="M0 0 C0.25 5.625 0.25 5.625 -2 9 C-0.07423885 11.43929746 1.80090595 13.80090595 4 16 C3.625 18.625 3.625 18.625 3 21 C-1.86971174 20.58259614 -3.72184884 18.45534852 -7 15 C-7.66 15 -8.32 15 -9 15 C-9.41986946 17.28836222 -9.41986946 17.28836222 -9 20 C-8.154375 20.825 -7.30875 21.65 -6.4375 22.5 C-5.633125 23.325 -4.82875 24.15 -4 25 C-4.1875 27.8125 -4.1875 27.8125 -5 30 C-10.30291073 29.35888817 -12.32319676 27.21453499 -15.58984375 23.1796875 C-17 21 -17 21 -17.875 17.5 C-16.59987652 12.39950607 -13.65798345 9.6432632 -10 6 C-9.45214844 5.39285156 -8.90429688 4.78570312 -8.33984375 4.16015625 C-4.5125 0 -4.5125 0 0 0 Z " fill="#166AA1" transform="translate(92,16)"/>
<path d="M0 0 C4.75 0.75 4.75 0.75 7 3 C7 3.99 7 4.98 7 6 C7.66 6 8.32 6 9 6 C9.33 5.01 9.66 4.02 10 3 C10.66 4.32 11.32 5.64 12 7 C13.32 7 14.64 7 16 7 C16.33 6.01 16.66 5.02 17 4 C17.66 4 18.32 4 19 4 C19 4.99 19 5.98 19 7 C19.61875 7.061875 20.2375 7.12375 20.875 7.1875 C23 8 23 8 24.4375 10.25 C25 13 25 13 23.625 15.8125 C23.08875 16.534375 22.5525 17.25625 22 18 C22.99 18.99 23.98 19.98 25 21 C25.8353125 20.505 25.8353125 20.505 26.6875 20 C29.41202025 18.82182908 31.06322274 18.54818811 34 19 C35.9375 20.6875 35.9375 20.6875 37 23 C36.1875 25.5625 36.1875 25.5625 35 28 C34.7763932 30.9254644 34.7763932 30.9254644 36 33 C34.0625 32.1875 34.0625 32.1875 32 31 C31.505 29.515 31.505 29.515 31 28 C31.99 27.34 32.98 26.68 34 26 C33.67 24.35 33.34 22.7 33 21 C28.82024121 21.51517957 26.78210465 23.78473431 23.875 26.6875 C23.00617188 27.53699219 22.13734375 28.38648437 21.2421875 29.26171875 C18.89020676 32.13408548 17.92927508 34.43429844 17 38 C15.02 37.67 13.04 37.34 11 37 C12.32 36.01 13.64 35.02 15 34 C14.38722388 31.03824877 13.74627478 29.61941217 12 27 C12.375 24.3125 12.375 24.3125 13 22 C13.53625 22.28875 14.0725 22.5775 14.625 22.875 C17.35280484 24.16711808 20.12612718 25.08558592 23 26 C21.8905928 22.51329166 20.73662334 19.22515763 19 16 C19.515625 15.5875 20.03125 15.175 20.5625 14.75 C21.036875 14.1725 21.51125 13.595 22 13 C21.77242269 10.83700789 21.77242269 10.83700789 21 9 C16.72902797 9.48782664 14.71841505 11.94573813 11.8125 14.9375 C10.93207031 15.83339844 10.05164063 16.72929688 9.14453125 17.65234375 C6.06709215 21.0212707 5.88029612 22.66309723 5.9375 27.125 C5.94652344 28.03507812 5.95554687 28.94515625 5.96484375 29.8828125 C5.97644531 30.58148438 5.98804687 31.28015625 6 32 C3.23776722 29.23776722 3.42143709 26.79293383 3 23 C1.35 23.33 -0.3 23.66 -2 24 C-1.319375 23.484375 -0.63875 22.96875 0.0625 22.4375 C5.41042521 18.09672241 5.41042521 18.09672241 10 13 C10.13210475 10.13079138 10.13210475 10.13079138 9 8 C5.12488273 8.54984772 3.40423494 10.27555331 0.75 13.0625 C0.04359375 13.79597656 -0.6628125 14.52945313 -1.390625 15.28515625 C-2.18726562 16.13400391 -2.18726562 16.13400391 -3 17 C-5.97 16.01 -8.94 15.02 -12 14 C-10 13 -10 13 -7.3125 13.25 C-2.85028741 12.91322924 -0.11125191 11.18000886 3 8 C4.03872687 5.33538907 4.03872687 5.33538907 4 3 C2.68 2.01 1.36 1.02 0 0 Z " fill="#61D2F7" transform="translate(114,52)"/>
<path d="M0 0 C3.24812693 0.84648156 4.88992576 2.9648036 6.93359375 5.50390625 C7.26359375 5.83390625 7.59359375 6.16390625 7.93359375 6.50390625 C8.2067419 12.24001736 8.2067419 12.24001736 7.93359375 14.50390625 C7.27359375 15.16390625 6.61359375 15.82390625 5.93359375 16.50390625 C0.68420235 16.50390625 -2.46818313 12.89473899 -6.06640625 9.50390625 C-5.54949219 10.035 -5.03257812 10.56609375 -4.5 11.11328125 C-3.51193359 12.17289063 -3.51193359 12.17289063 -2.50390625 13.25390625 C-1.84261719 13.95 -1.18132812 14.64609375 -0.5 15.36328125 C0.93359375 17.50390625 0.93359375 17.50390625 0.6484375 19.76953125 C0.41253906 20.341875 0.17664063 20.91421875 -0.06640625 21.50390625 C-3.900978 21.39112473 -5.81181019 20.124357 -8.37890625 17.44140625 C-10.49400228 14.77287836 -11.53357766 12.79399944 -11.75390625 9.37890625 C-11.06640625 5.50390625 -11.06640625 5.50390625 -9.06640625 2.50390625 C-5.73186704 0.28088011 -3.92597288 -0.23006646 0 0 Z " fill="#176CA3" transform="translate(154.06640625,91.49609375)"/>
<path d="M0 0 C7.1 7.1 7.1 7.1 9.3125 9.4375 C10.00988281 10.15808594 10.70726562 10.87867188 11.42578125 11.62109375 C13.42920886 14.64860594 13.41179771 16.43268264 13 20 C10.67619298 24.30334634 8.08691456 27.30861724 4 30 C2.35 30.33 0.7 30.66 -1 31 C-0.67 20.77 -0.34 10.54 0 0 Z " fill="#15679D" transform="translate(186,169)"/>
<path d="M0 0 C2.17578125 0.34765625 2.17578125 0.34765625 4 1 C4.33 2.65 4.66 4.3 5 6 C3.02 6.99 3.02 6.99 1 8 C1.66 8.721875 2.32 9.44375 3 10.1875 C5.1535853 13.21597933 5.41176754 14.39703406 5 18 C1.85375007 18.26218749 0.38162983 18.24754367 -2.3125 16.5 C-2.869375 16.005 -3.42625 15.51 -4 15 C-4.77242269 16.83700789 -4.77242269 16.83700789 -5 19 C-4.505 19.474375 -4.01 19.94875 -3.5 20.4375 C-3.005 20.953125 -2.51 21.46875 -2 22 C-2.3125 24.6875 -2.3125 24.6875 -3 27 C-5.25 27.3125 -5.25 27.3125 -8 27 C-10.84820058 23.99356605 -12.72310129 21.45371822 -13.5 17.375 C-12.73657553 12.22188481 -9.56048236 9.61779394 -6 6 C-5.45214844 5.37996094 -4.90429688 4.75992188 -4.33984375 4.12109375 C-2.8125 2.4375 -2.8125 2.4375 0 0 Z " fill="#166AA2" transform="translate(144,72)"/>
<path d="M0 0 C8.27234786 4.80608019 14.71744891 11.27784076 21.40234375 18.00390625 C22.57252579 19.17206335 23.7431525 20.33977515 24.91419983 21.50706482 C27.35207768 23.94054608 29.78451282 26.3793038 32.21313477 28.82202148 C35.32212721 31.94818052 38.44450031 35.06057351 41.57102108 38.16919041 C43.98453054 40.57185478 46.39084396 42.98162386 48.79504585 45.39359856 C49.94387412 46.54442286 51.09492074 47.69303719 52.24824333 48.83935738 C53.85638758 50.43986692 55.45457704 52.04970626 57.05053711 53.66235352 C57.96048935 54.57469254 58.87044159 55.48703156 59.80796814 56.42701721 C61.93329567 58.92170319 63.01199911 60.90092565 64 64 C61.5625 63.1875 61.5625 63.1875 59 62 C58.67 61.01 58.34 60.02 58 59 C56.68335872 58.30094495 55.34716024 57.63826444 54 57 C52.18823242 55.43115234 52.18823242 55.43115234 50.35546875 53.5859375 C49.67806641 52.90660156 49.00066406 52.22726563 48.30273438 51.52734375 C47.25569336 50.46193359 47.25569336 50.46193359 46.1875 49.375 C45.50107422 48.68792969 44.81464844 48.00085938 44.10742188 47.29296875 C40.86025612 44.01815446 37.7269411 40.69675246 34.71386719 37.20507812 C31.15804366 33.1215514 27.39669851 29.30056795 23.53515625 25.5078125 C22.14505621 24.13033556 20.75508582 22.75272777 19.36523438 21.375 C17.19870881 19.23346234 15.03059371 17.09357827 12.86010742 14.95605469 C10.74748221 12.8734444 8.64096647 10.78481011 6.53515625 8.6953125 C5.87902847 8.05264435 5.2229007 7.4099762 4.54689026 6.74783325 C3.94884079 6.15316254 3.35079132 5.55849182 2.73461914 4.94580078 C2.2050209 4.42365997 1.67542267 3.90151917 1.129776 3.36355591 C0 2 0 2 0 0 Z " fill="#65CAF2" transform="translate(120,27)"/>
<path d="M0 0 C2.17578125 0.34765625 2.17578125 0.34765625 4 1 C4.6875 2.8125 4.6875 2.8125 5 5 C3.5625 6.75 3.5625 6.75 2 8 C3.22007944 10.6905528 3.22007944 10.6905528 5 13 C5.04063832 14.66617115 5.042721 16.33388095 5 18 C2.6875 18.1875 2.6875 18.1875 0 18 C-1.6875 16.5 -1.6875 16.5 -3 15 C-3.66 15 -4.32 15 -5 15 C-4.45276317 18.37462715 -3.9451 20.08235 -2 23 C-2.375 25.1875 -2.375 25.1875 -3 27 C-6.72169726 26.74624791 -8.55712024 26.39626084 -11.375 23.875 C-13.51645444 20.08627291 -13.80194486 18.30134061 -13 14 C-10.97694045 11.00888617 -8.5497403 8.54461003 -6 6 C-5.45214844 5.38125 -4.90429688 4.7625 -4.33984375 4.125 C-2.8125 2.4375 -2.8125 2.4375 0 0 Z " fill="#1569A0" transform="translate(132,60)"/>
<path d="M0 0 C2.4375 1.99609375 2.4375 1.99609375 5 4.4375 C7.87472399 7.16761135 10.32985908 9.44528753 14 11 C11.15464275 12.42267862 8.63781448 12.21971869 5.4609375 12.31640625 C3.50800781 12.37924805 3.50800781 12.37924805 1.515625 12.44335938 C0.13541955 12.48317299 -1.24478883 12.52288522 -2.625 12.5625 C-4.01303415 12.60569407 -5.40105528 12.64930865 -6.7890625 12.69335938 C-10.19260256 12.79972 -13.59621778 12.90174714 -17 13 C-16.24450616 8.25807055 -14.58960858 5.20402403 -11 2 C-7.3354433 -0.27087742 -4.15701336 -1.67209476 0 0 Z " fill="#135B8C" transform="translate(17,1)"/>
<path d="M0 0 C9.85735228 -0.02315177 19.71469811 -0.04092959 29.57207203 -0.05181217 C34.14905061 -0.05703478 38.72601062 -0.06412118 43.30297852 -0.07543945 C47.71849946 -0.08629038 52.13400251 -0.09228154 56.54953575 -0.09487724 C58.2356666 -0.0967275 59.92179645 -0.10034049 61.60791969 -0.10573006 C63.96625524 -0.11296972 66.32451649 -0.1139897 68.68286133 -0.11352539 C69.38273163 -0.11712067 70.08260193 -0.12071594 70.80368042 -0.12442017 C73.82289873 -0.11797142 76.10944692 0.03648231 79 1 C79 1.66 79 2.32 79 3 C69.14303768 3.22321414 59.285895 3.42472748 49.42792797 3.59840012 C44.85065907 3.67972524 40.27379213 3.76857315 35.69702148 3.87451172 C31.28170434 3.97643802 26.86642068 4.05873598 22.45046425 4.12732697 C20.76419562 4.15698939 19.07803699 4.19377182 17.39208031 4.2377243 C15.03365975 4.29800163 12.67612017 4.33314152 10.31713867 4.36230469 C9.26733322 4.39790245 9.26733322 4.39790245 8.19631958 4.43421936 C6.24601746 4.4430542 6.24601746 4.4430542 3 4 C1.04267883 1.97735596 1.04267883 1.97735596 0 0 Z " fill="#B4D0E2" transform="translate(16,0)"/>
<path d="M0 0 C0.66 0 1.32 0 2 0 C2.08564209 0.63091553 2.17128418 1.26183105 2.25952148 1.91186523 C2.64783714 4.75435681 3.04258081 7.59591869 3.4375 10.4375 C3.57220703 11.43072266 3.70691406 12.42394531 3.84570312 13.44726562 C3.97783203 14.39150391 4.10996094 15.33574219 4.24609375 16.30859375 C4.42676392 17.62041626 4.42676392 17.62041626 4.61108398 18.95874023 C4.79922202 20.98664505 4.79922202 20.98664505 6 22 C6.09353163 23.68801985 6.11744791 25.37995207 6.11352539 27.07055664 C6.11344986 28.15160172 6.11337433 29.23264679 6.11329651 30.34645081 C6.10813522 31.5224736 6.10297394 32.6984964 6.09765625 33.91015625 C6.0962413 35.10732773 6.09482635 36.30449921 6.09336853 37.53794861 C6.08774979 41.37949066 6.07519411 45.22097543 6.0625 49.0625 C6.05748741 51.65950437 6.05292409 54.25650965 6.04882812 56.85351562 C6.03777427 63.23569679 6.02101792 69.6178443 6 76 C5.01 76.495 5.01 76.495 4 77 C1.52797274 72.23234506 1.77517461 67.84243767 1.875 62.6171875 C1.89211639 60.71964688 1.90903584 58.82210448 1.92578125 56.92456055 C1.93818848 55.93531586 1.9505957 54.94607117 1.96337891 53.92684937 C2.18044465 35.83749468 1.87379243 18.00784298 0 0 Z " fill="#5495C0" transform="translate(190,102)"/>
<path d="M0 0 C0.33 0 0.66 0 1 0 C2.86068259 14.27816914 3.24795206 28.30094932 3.125 42.6875 C3.11493485 44.76887583 3.10581534 46.85025645 3.09765625 48.93164062 C3.07595792 53.95454895 3.04162968 58.97721897 3 64 C2.01 64 1.02 64 0 64 C-2.37642639 60.30968118 -2.27433642 56.73022632 -2.23046875 52.48828125 C-2.23001053 51.76062057 -2.22955231 51.0329599 -2.2290802 50.2832489 C-2.22606408 48.74423593 -2.21819692 47.20522585 -2.20581055 45.66625977 C-2.18769791 43.33794025 -2.18530015 41.01002288 -2.18554688 38.68164062 C-2.14435042 21.15572817 -2.14435042 21.15572817 0 13 C-0.33 13 -0.66 13 -1 13 C-0.67 8.71 -0.34 4.42 0 0 Z " fill="#3B85B6" transform="translate(190,110)"/>
<path d="M0 0 C0.66 0 1.32 0 2 0 C4.07861592 4.25294869 4.27397859 8.0850846 4.22705078 12.7277832 C4.22734283 13.48929184 4.22763489 14.25080048 4.22793579 15.03538513 C4.22654768 17.54063498 4.21101112 20.04558366 4.1953125 22.55078125 C4.19158052 24.29241269 4.18873442 26.03404624 4.18673706 27.77568054 C4.17911516 32.35089962 4.15947908 36.92599093 4.1373291 41.50115967 C4.11683956 46.17328157 4.1077287 50.8454242 4.09765625 55.51757812 C4.07623182 64.67844143 4.04211331 73.83921007 4 83 C1.8889482 81.30517636 1.06811941 80.43879801 0.64596558 77.7194519 C0.65564362 76.82444977 0.66532166 75.92944763 0.67529297 75.00732422 C0.67874725 73.98710175 0.68220154 72.96687927 0.6857605 71.91574097 C0.70438141 70.80659332 0.72300232 69.69744568 0.7421875 68.5546875 C0.74880402 67.39744171 0.75542053 66.24019592 0.76223755 65.04788208 C0.78567817 61.32332107 0.82921674 57.59934786 0.875 53.875 C0.92215741 49.03910454 0.96023881 44.2032065 0.9921875 39.3671875 C1.00086853 38.1784906 1.00954956 36.9897937 1.01849365 35.76507568 C1.07059605 23.82673403 0.6086754 11.92096613 0 0 Z " fill="#88B6D3" transform="translate(196,102)"/>
<path d="M0 0 C5.19756271 4.25255131 9.91385923 8.84490912 14.55957031 13.68457031 C15.04651367 14.18311523 15.53345703 14.68166016 16.03515625 15.1953125 C16.4619165 15.63891113 16.88867676 16.08250977 17.32836914 16.53955078 C19.11653006 18.17078468 19.11653006 18.17078468 21.84790039 19.85449219 C25.06464108 22.04399859 27.6462173 24.38756626 30.3984375 27.1328125 C31.11817245 27.84967728 31.11817245 27.84967728 31.85244751 28.58102417 C32.85477192 29.58199837 33.85461867 30.58545933 34.85205078 31.59130859 C36.38482899 33.13489832 37.92812456 34.66739926 39.47265625 36.19921875 C40.44855942 37.17644187 41.4238429 38.15428433 42.3984375 39.1328125 C43.28192871 40.01855957 44.16541992 40.90430664 45.07568359 41.81689453 C47 44 47 44 47 46 C47.66 46 48.32 46 49 46 C49 46.66 49 47.32 49 48 C49.66 48 50.32 48 51 48 C52.03435556 49.64556566 53.02763513 51.3170608 54 53 C55.31037934 54.68477344 56.63823078 56.35648543 58 58 C54.11759569 56.41606688 51.49150686 53.7742507 48.58886719 50.84765625 C48.06159027 50.32388397 47.53431335 49.80011169 46.99105835 49.26046753 C45.25460807 47.5327998 43.52555188 45.7979431 41.796875 44.0625 C40.59219117 42.85916341 39.38721058 41.65612385 38.1819458 40.45336914 C35.66034841 37.93471796 33.14239861 35.41249015 30.62695312 32.88769531 C27.39648316 29.64580665 24.15708548 26.41301113 20.91492844 23.18281555 C18.4269891 20.70208746 15.94381354 18.21663514 13.46207428 15.72970581 C12.26898417 14.53527843 11.07439807 13.34234349 9.87831879 12.15090942 C8.21185385 10.48950026 6.55189607 8.82185609 4.89355469 7.15234375 C4.39489899 6.65773651 3.89624329 6.16312927 3.38247681 5.65353394 C0 2.22853222 0 2.22853222 0 0 Z " fill="#A5DEF1" transform="translate(77,59)"/>
<path d="M0 0 C0 0.66 0 1.32 0 2 C-25.74 2 -51.48 2 -78 2 C-77.67 1.34 -77.34 0.68 -77 0 C-67.40349738 -0.15377378 -57.80692957 -0.3019552 -48.21023083 -0.4429636 C-43.75428217 -0.50861324 -39.29838036 -0.57620144 -34.8425293 -0.64819336 C-30.54377901 -0.71757616 -26.24498027 -0.78190148 -21.94610023 -0.84269524 C-20.30460161 -0.86680278 -18.66312887 -0.89274406 -17.02168846 -0.92053413 C-14.72568179 -0.95909541 -12.42967024 -0.99118288 -10.13354492 -1.02172852 C-8.82560471 -1.04171402 -7.51766449 -1.06169952 -6.17008972 -1.08229065 C-3 -1 -3 -1 0 0 Z " fill="#76A9CB" transform="translate(98,3)"/>
<path d="M0 0 C4.24720738 1.17475949 6.85628384 3.74951589 9.9375 6.8125 C9.6075 8.4625 9.2775 10.1125 8.9375 11.8125 C5.24995243 11.31418276 3.33259338 10.71182357 0.9375 7.8125 C-1.33081293 8.86564529 -3.10294105 9.84772285 -5 11.5 C-7.0625 12.8125 -7.0625 12.8125 -9.8125 12.5 C-10.555 12.273125 -11.2975 12.04625 -12.0625 11.8125 C-11.34971235 7.1432244 -8.69640794 5.15113323 -5.1796875 2.25390625 C-3.0625 0.8125 -3.0625 0.8125 0 0 Z " fill="#16699F" transform="translate(167.0625,106.1875)"/>
<path d="M0 0 C0.33 0 0.66 0 1 0 C1 1.65 1 3.3 1 5 C1.928125 5.12375 2.85625 5.2475 3.8125 5.375 C7 6 7 6 10 8 C9.67 8.66 9.34 9.32 9 10 C8.01 9.34 7.02 8.68 6 8 C0.49428511 7.45734371 0.49428511 7.45734371 -4.5 9.375 C-6.81720603 13.43011056 -6.3135704 17.43580864 -6 22 C-6.66 21.67 -7.32 21.34 -8 21 C-8.625 18.4375 -8.625 18.4375 -9 16 C-9.886875 15.95875 -10.77375 15.9175 -11.6875 15.875 C-16.28502218 14.66056018 -17.40513397 12.9316152 -20 9 C-19.67 8.01 -19.34 7.02 -19 6 C-18.54560547 6.75796875 -18.54560547 6.75796875 -18.08203125 7.53125 C-16.81585432 9.49479823 -15.58981351 11.28557949 -14 13 C-11.28528995 13.58768383 -11.28528995 13.58768383 -9 13 C-9.57452746 9.06924356 -9.57452746 9.06924356 -12 6 C-11.625 3.875 -11.625 3.875 -11 2 C-10.01 2 -9.02 2 -8 2 C-7.34 2.66 -6.68 3.32 -6 4 C-3.41645782 4.16687448 -3.41645782 4.16687448 -1 4 C-0.67 2.68 -0.34 1.36 0 0 Z " fill="#5AC3EE" transform="translate(150,85)"/>
<path d="M0 0 C2.1875 0.3125 2.1875 0.3125 4 1 C4.7578125 3.19921875 4.7578125 3.19921875 5 6 C3.3046875 8.45703125 3.3046875 8.45703125 0.875 10.8125 C0.08867188 11.60269531 -0.69765625 12.39289063 -1.5078125 13.20703125 C-4.31740755 15.22835433 -5.62149688 15.40277528 -9 15 C-9.703125 13.25390625 -9.703125 13.25390625 -10 11 C-8.671875 8.96484375 -8.671875 8.96484375 -6.75 6.9375 C-6.12609375 6.26589844 -5.5021875 5.59429687 -4.859375 4.90234375 C-4.24578125 4.27457031 -3.6321875 3.64679687 -3 3 C-2.47277344 2.41734375 -1.94554688 1.8346875 -1.40234375 1.234375 C-0.93957031 0.82703125 -0.47679688 0.4196875 0 0 Z " fill="#16699F" transform="translate(120,59)"/>
<path d="M0 0 C6.04265914 5.00255879 11.56098043 10.43177324 17.08984375 15.9921875 C18.04368954 16.94790248 18.99775941 17.90339388 19.95204163 18.8586731 C22.44153194 21.35194916 24.92800224 23.84821525 27.41381836 26.34515381 C29.95957994 28.90121509 32.50823777 31.45438505 35.05664062 34.0078125 C40.04057069 39.00241019 45.02131048 44.00017799 50 49 C49.01 49.33 48.02 49.66 47 50 C45.64242826 48.6701338 44.28916504 47.33586929 42.9375 46 C42.18339844 45.2575 41.42929688 44.515 40.65234375 43.75 C38.61854147 41.64131545 36.70540668 39.51674569 34.80078125 37.29638672 C31.21375339 33.18415066 27.42675323 29.33008729 23.53515625 25.5078125 C22.14505621 24.13033556 20.75508582 22.75272777 19.36523438 21.375 C17.19870881 19.23346234 15.03059371 17.09357827 12.86010742 14.95605469 C10.74748221 12.8734444 8.64096647 10.78481011 6.53515625 8.6953125 C5.87902847 8.05264435 5.2229007 7.4099762 4.54689026 6.74783325 C3.94884079 6.15316254 3.35079132 5.55849182 2.73461914 4.94580078 C2.2050209 4.42365997 1.67542267 3.90151917 1.129776 3.36355591 C0 2 0 2 0 0 Z " fill="#CFEBF8" transform="translate(120,27)"/>
<path d="M0 0 C0.33 0 0.66 0 1 0 C1.89126965 5.42691235 2.20400749 10.72051178 2.31640625 16.21484375 C2.33718735 17.07058487 2.35796844 17.92632599 2.37937927 18.80799866 C2.44429954 21.51775776 2.50348978 24.2276064 2.5625 26.9375 C2.60574005 28.78451414 2.64935601 30.63151952 2.69335938 32.47851562 C2.79992119 36.98558741 2.90134737 41.49274844 3 46 C2.01 46 1.02 46 0 46 C-1.17888988 42.46333035 -1.14345213 39.26518558 -1.1328125 35.5859375 C-1.13376923 34.85686188 -1.13472595 34.12778625 -1.13571167 33.37661743 C-1.13639207 31.83164382 -1.13454755 30.28666734 -1.13037109 28.74169922 C-1.12506707 26.40455486 -1.13029668 24.06760677 -1.13671875 21.73046875 C-1.13965205 14.42713635 -1.04432404 7.24396196 0 0 Z " fill="#2979AE" transform="translate(189,127)"/>
<path d="M0 0 C3 3 3 3 3.1875 6.1875 C3.0946875 7.5796875 3.0946875 7.5796875 3 9 C5.31 9.33 7.62 9.66 10 10 C10 10.33 10 10.66 10 11 C9.40832031 11.08636719 8.81664062 11.17273438 8.20703125 11.26171875 C2.46628104 12.28250468 0.07731996 13.70228436 -4 18 C-7.3125 18.8125 -7.3125 18.8125 -10 19 C-9.484375 18.5875 -8.96875 18.175 -8.4375 17.75 C-6.80164393 16.13597452 -6.80164393 16.13597452 -7 14.125 C-8.40348781 11.14258841 -10.65665642 9.28325785 -13 7 C-13 6.34 -13 5.68 -13 5 C-10.39582289 6.11607591 -8.96878797 7.03523938 -7.0625 9.1875 C-6.381875 9.785625 -5.70125 10.38375 -5 11 C-2.29294488 10.85974801 -2.29294488 10.85974801 0 10 C0 6.7 0 3.4 0 0 Z " fill="#3DA6D9" transform="translate(161,96)"/>
<path d="M0 0 C1.32 1.32 2.64 2.64 4 4 C3.01 4.495 3.01 4.495 2 5 C2 13.58 2 22.16 2 31 C1.01 31 0.02 31 -1 31 C-0.67 20.77 -0.34 10.54 0 0 Z " fill="#0B3652" transform="translate(186,169)"/>
<path d="M0 0 C3.94139078 1.66751148 6.7892812 4.22710649 10 7 C9.34 8.32 8.68 9.64 8 11 C4 11 4 11 1.25 8.8125 C-1 6 -1 6 -1.375 3.25 C-1 1 -1 1 0 0 Z " fill="#3191C5" transform="translate(83,30)"/>
<path d="M0 0 C1.32 0.33 2.64 0.66 4 1 C3.67 1.99 3.34 2.98 3 4 C2.91893314 5.55421729 2.89243102 7.11167027 2.90234375 8.66796875 C2.90556641 9.56064453 2.90878906 10.45332031 2.91210938 11.37304688 C2.92048828 12.30181641 2.92886719 13.23058594 2.9375 14.1875 C2.94201172 15.12787109 2.94652344 16.06824219 2.95117188 17.03710938 C2.96295374 19.35813712 2.97940442 21.67903644 3 24 C2.01 24.33 1.02 24.66 0 25 C0 16.75 0 8.5 0 0 Z " fill="#10527E" transform="translate(188,174)"/>
<path d="M0 0 C0.99 0.33 1.98 0.66 3 1 C3 1.66 3 2.32 3 3 C3.86286621 3.37390869 3.86286621 3.37390869 4.74316406 3.75537109 C7.32410072 5.17873923 9.04212237 6.81548786 11.109375 8.9140625 C11.86347656 9.67460937 12.61757812 10.43515625 13.39453125 11.21875 C14.17183594 12.0128125 14.94914062 12.806875 15.75 13.625 C16.54277344 14.42679688 17.33554688 15.22859375 18.15234375 16.0546875 C20.10614493 18.03202846 22.05512103 20.01388909 24 22 C21 22 21 22 19.34594727 20.65478516 C18.75869873 20.03909668 18.1714502 19.4234082 17.56640625 18.7890625 C16.91736328 18.12132813 16.26832031 17.45359375 15.59960938 16.765625 C14.92736328 16.05921875 14.25511719 15.3528125 13.5625 14.625 C12.23525136 13.23759641 10.90337209 11.85460459 9.56640625 10.4765625 C8.68384155 9.549646 8.68384155 9.549646 7.78344727 8.60400391 C5.94854592 6.95372303 4.20621699 6.07070192 2 5 C0.25 2.875 0.25 2.875 -1 1 C-0.67 0.67 -0.34 0.34 0 0 Z " fill="#358FC2" transform="translate(102,8)"/>
<path d="M0 0 C1.984375 1.328125 1.984375 1.328125 4 4 C4.51556954 7.59068254 4.37526282 11.13183171 4.25 14.75 C4.23195312 15.73355469 4.21390625 16.71710938 4.1953125 17.73046875 C4.14824126 20.15463783 4.08250742 22.57682059 4 25 C3.67 25 3.34 25 3 25 C2.49279088 22.14694871 1.99406366 19.29283186 1.5 16.4375 C1.35691406 15.63763672 1.21382812 14.83777344 1.06640625 14.01367188 C0.25230605 9.26475402 -0.15519589 4.81753923 0 0 Z " fill="#6DADD1" transform="translate(193,98)"/>
<path d="M0 0 C3.16854747 0.57691478 4.78226459 1.41646887 7.015625 3.72265625 C7.54414063 4.26083984 8.07265625 4.79902344 8.6171875 5.35351562 C9.15601563 5.91748047 9.69484375 6.48144531 10.25 7.0625 C10.80429688 7.63033203 11.35859375 8.19816406 11.9296875 8.78320312 C13.29334214 10.18212469 14.64760417 11.59019114 16 13 C15.01 13.33 14.02 13.66 13 14 C3.40546697 4.58997722 3.40546697 4.58997722 0 0 Z " fill="#9BDEF9" transform="translate(154,63)"/>
<path d="M0 0 C0.66 0 1.32 0 2 0 C3.51984883 1.67535459 4.96706453 3.41705622 6.375 5.1875 C7.53128906 6.63189453 7.53128906 6.63189453 8.7109375 8.10546875 C9.46632812 9.06066406 10.22171875 10.01585938 11 11 C12.33277854 12.66711035 13.66592391 14.33392781 15 16 C10.99060757 14.38669686 8.24326219 11.57540302 5.25 8.5625 C4.74339844 8.07201172 4.23679688 7.58152344 3.71484375 7.07617188 C2.4140692 5.77715039 1.20011632 4.39254877 0 3 C0 2.01 0 1.02 0 0 Z " fill="#59ABD4" transform="translate(134,115)"/>
<path d="M0 0 C2.23775292 1.00313062 3.8507388 1.84476835 5.5625 3.625 C7.02978279 5.34561132 7.02978279 5.34561132 10 5 C12.1875 8 12.1875 8 14 11 C11 11 11 11 8 9 C8 8.34 8 7.68 8 7 C7.4225 6.773125 6.845 6.54625 6.25 6.3125 C3.4336339 4.66961977 1.91922886 2.60466773 0 0 Z " fill="#59B7E2" transform="translate(170,79)"/>
<path d="M0 0 C1.67542976 0.28604898 3.34385343 0.61781233 5 1 C4.67 2.65 4.34 4.3 4 6 C2.35 5.67 0.7 5.34 -1 5 C-1 1 -1 1 0 0 Z " fill="#13679E" transform="translate(126,54)"/>
<path d="M0 0 C0.33 0.99 0.66 1.98 1 3 C0.67 3.66 0.34 4.32 0 5 C-0.06996014 6.70702735 -0.08440154 8.41668003 -0.0625 10.125 C-0.04896484 11.49011719 -0.04896484 11.49011719 -0.03515625 12.8828125 C-0.02355469 13.58148438 -0.01195313 14.28015625 0 15 C-2.76223278 12.23776722 -2.57856291 9.79293383 -3 6 C-4.65 6.33 -6.3 6.66 -8 7 C-7.236875 6.401875 -6.47375 5.80375 -5.6875 5.1875 C-3.6516425 3.53040668 -1.8021721 1.89702326 0 0 Z " fill="#67D9FB" transform="translate(120,69)"/>
<path d="M0 0 C0.33 0 0.66 0 1 0 C1 1.65 1 3.3 1 5 C1.928125 5.12375 2.85625 5.2475 3.8125 5.375 C7 6 7 6 10 8 C9.67 8.66 9.34 9.32 9 10 C8.01 9.34 7.02 8.68 6 8 C4.11845117 7.55888435 2.21937362 7.1890733 0.3125 6.875 C-0.68136719 6.70742187 -1.67523438 6.53984375 -2.69921875 6.3671875 C-3.45847656 6.24601562 -4.21773437 6.12484375 -5 6 C-4.35546875 5.71382813 -3.7109375 5.42765625 -3.046875 5.1328125 C-0.80115872 4.18581338 -0.80115872 4.18581338 -0.25 1.875 C-0.1675 1.25625 -0.085 0.6375 0 0 Z " fill="#51B9E5" transform="translate(150,85)"/>
<path d="M0 0 C-1.20381448 2.49361571 -2.45428722 4.68143083 -4 7 C-2.35 5.68 -0.7 4.36 1 3 C1.66 3.33 2.32 3.66 3 4 C1.3125 6.0625 1.3125 6.0625 -1 8 C-3.75 7.75 -3.75 7.75 -6 7 C-5.37162381 3.35541809 -4.14650034 0 0 0 Z " fill="#4DBEEE" transform="translate(110,51)"/>
<path d="M0 0 C1.15518918 0.90484792 2.29885406 1.8244206 3.4375 2.75 C4.07558594 3.26046875 4.71367187 3.7709375 5.37109375 4.296875 C7.18810554 6.19667629 7.60423197 7.43586908 8 10 C7.0925 9.21625 6.185 8.4325 5.25 7.625 C2.94809764 5.69947504 0.78422793 4.17794259 -2 3 C-1.34 2.67 -0.68 2.34 0 2 C0 1.34 0 0.68 0 0 Z " fill="#70C7EC" transform="translate(170,75)"/>
<path d="M0 0 C4.75 0.75 4.75 0.75 7 3 C7 3.99 7 4.98 7 6 C7.66 6 8.32 6 9 6 C9.33 5.01 9.66 4.02 10 3 C10.66 4.65 11.32 6.3 12 8 C9.16032769 8 6.76264289 7.59732819 4 7 C3.896875 6.21625 3.79375 5.4325 3.6875 4.625 C3.22404978 1.66954819 3.22404978 1.66954819 0 0 Z " fill="#58C3EF" transform="translate(114,52)"/>
<path d="M0 0 C0.33 0 0.66 0 1 0 C1.16821105 2.5832412 1.33462517 5.16657699 1.5 7.75 C1.54769531 8.47960937 1.59539062 9.20921875 1.64453125 9.9609375 C1.85816897 13.31810164 2 16.63436276 2 20 C1.34 19.67 0.68 19.34 0 19 C0 12.73 0 6.46 0 0 Z " fill="#156396" transform="translate(190,178)"/>
<path d="M0 0 C2.125 0.375 2.125 0.375 4 1 C1.6875 3.5 1.6875 3.5 -1 6 C-1.99 6 -2.98 6 -4 6 C-2.84826645 3.53199953 -1.95216435 1.95216435 0 0 Z " fill="#104D75" transform="translate(7,4)"/>
<path d="M0 0 C3.36179774 1.44077046 5.59156268 3.24750021 8 6 C8 6.66 8 7.32 8 8 C4.63820226 6.55922954 2.40843732 4.75249979 0 2 C0 1.34 0 0.68 0 0 Z " fill="#47AEDC" transform="translate(148,101)"/>
<path d="M0 0 C0.99 0 1.98 0 3 0 C2.34 2.64 1.68 5.28 1 8 C-1.97 7.505 -1.97 7.505 -5 7 C-4.360625 6.5875 -3.72125 6.175 -3.0625 5.75 C-0.79009069 3.82189513 -0.39803561 2.88575819 0 0 Z " fill="#6AD9FB" transform="translate(130,82)"/>
<path d="M0 0 C2.31 1.98 4.62 3.96 7 6 C5.68 6.33 4.36 6.66 3 7 C0 2.25 0 2.25 0 0 Z " fill="#49A8D6" transform="translate(182,87)"/>
<path d="M0 0 C3.16115776 1.36983503 3.9927092 1.9890638 6 5 C4.68 4.34 3.36 3.68 2 3 C1.34 3.99 0.68 4.98 0 6 C-0.38218767 4.34385343 -0.71395102 2.67542976 -1 1 C-0.67 0.67 -0.34 0.34 0 0 Z " fill="#67DAFB" transform="translate(127,74)"/>
<path d="M0 0 C0.66 0 1.32 0 2 0 C2.33 1.32 2.66 2.64 3 4 C1.02 5.32 -0.96 6.64 -3 8 C-2.5359375 7.13375 -2.5359375 7.13375 -2.0625 6.25 C-1.07416636 4.15705816 -0.4831387 2.25464725 0 0 Z " fill="#2593CB" transform="translate(92,18)"/>
<path d="M0 0 C1.32 1.32 2.64 2.64 4 4 C1.36 4 -1.28 4 -4 4 C-4 3.34 -4 2.68 -4 2 C-2.68 2 -1.36 2 0 2 C0 1.34 0 0.68 0 0 Z " fill="#174A6D" transform="translate(15,0)"/>
</svg>
